<svg class="svgicon svgicon-logo" xmlns="http://www.w3.org/2000/svg" width="191" height="29" viewBox="0 0 191 29">
<path d="M10.2 28.4C8.12 28.4 6.14667 28.0533 4.28 27.36C2.44 26.64 1.01333 25.72 0 24.6L0.92 23.08C1.88 24.0667 3.18667 24.9067 4.84 25.6C6.52 26.2667 8.29333 26.6 10.16 26.6C12.0267 26.6 13.5467 26.36 14.72 25.88C15.92 25.3733 16.8 24.7067 17.36 23.88C17.9467 23.0533 18.24 22.1333 18.24 21.12C18.24 19.92 17.92 18.96 17.28 18.24C16.64 17.52 15.8 16.9467 14.76 16.52C13.72 16.0933 12.5867 15.7333 11.36 15.44C10.1333 15.1467 8.89333 14.84 7.64 14.52C6.38667 14.1733 5.24 13.7333 4.2 13.2C3.16 12.6667 2.32 11.9467 1.68 11.04C1.06667 10.1067 0.76 8.90667 0.76 7.44C0.76 6.10667 1.10667 4.88 1.8 3.76C2.49333 2.64 3.57333 1.73333 5.04 1.04C6.50667 0.346667 8.38667 0 10.68 0C12.2267 0 13.7467 0.226667 15.24 0.680001C16.76 1.13333 18.0533 1.74667 19.12 2.52L18.36 4.16C17.1867 3.36 15.92 2.77333 14.56 2.4C13.2267 2 11.9333 1.8 10.68 1.8C8.89333 1.8 7.41333 2.05333 6.24 2.56C5.06667 3.06667 4.2 3.74667 3.64 4.6C3.08 5.42667 2.8 6.36 2.8 7.4C2.8 8.6 3.10667 9.56 3.72 10.28C4.36 11 5.2 11.5733 6.24 12C7.28 12.4267 8.42667 12.7867 9.68 13.08C10.9333 13.3733 12.1733 13.6933 13.4 14.04C14.6267 14.36 15.76 14.7867 16.8 15.32C17.84 15.8533 18.68 16.5733 19.32 17.48C19.96 18.3867 20.28 19.56 20.28 21C20.28 22.3067 19.92 23.5333 19.2 24.68C18.48 25.8 17.3733 26.7067 15.88 27.4C14.4133 28.0667 12.52 28.4 10.2 28.4Z" fill="url(#paint0_linear_2467_286)"/>
<path d="M26.135 28.2L39.015 0.2H41.055L53.935 28.2H51.735L39.575 1.48H40.455L28.335 28.2H26.135Z" fill="url(#paint1_linear_2467_286)"/>
<path d="M62.6181 28.2V0.2H64.3381L77.3381 22.64H76.4181L89.3781 0.2H91.0581L91.0981 28.2H89.0981L89.0581 3.28H89.6181L77.3381 24.48H76.3381L64.0181 3.28H64.6181V28.2H62.6181Z" fill="url(#paint2_linear_2467_286)"/>
<path d="M115.42 28.4C111.954 28.4 109.22 27.3867 107.22 25.36C105.22 23.3333 104.22 20.32 104.22 16.32V0.2H106.26V16.24C106.26 19.7333 107.06 22.32 108.66 24C110.26 25.68 112.527 26.52 115.46 26.52C118.367 26.52 120.62 25.68 122.22 24C123.82 22.32 124.62 19.7333 124.62 16.24V0.2H126.66V16.32C126.66 20.32 125.66 23.3333 123.66 25.36C121.66 27.3867 118.914 28.4 115.42 28.4Z" fill="url(#paint3_linear_2467_286)"/>
<path d="M147.139 28.4C145.059 28.4 143.086 28.0533 141.219 27.36C139.379 26.64 137.952 25.72 136.939 24.6L137.859 23.08C138.819 24.0667 140.126 24.9067 141.779 25.6C143.459 26.2667 145.232 26.6 147.099 26.6C148.966 26.6 150.486 26.36 151.659 25.88C152.859 25.3733 153.739 24.7067 154.299 23.88C154.886 23.0533 155.179 22.1333 155.179 21.12C155.179 19.92 154.859 18.96 154.219 18.24C153.579 17.52 152.739 16.9467 151.699 16.52C150.659 16.0933 149.526 15.7333 148.299 15.44C147.072 15.1467 145.832 14.84 144.579 14.52C143.326 14.1733 142.179 13.7333 141.139 13.2C140.099 12.6667 139.259 11.9467 138.619 11.04C138.006 10.1067 137.699 8.90667 137.699 7.44C137.699 6.10667 138.046 4.88 138.739 3.76C139.432 2.64 140.512 1.73333 141.979 1.04C143.446 0.346667 145.326 0 147.619 0C149.166 0 150.686 0.226667 152.179 0.680001C153.699 1.13333 154.992 1.74667 156.059 2.52L155.299 4.16C154.126 3.36 152.859 2.77333 151.499 2.4C150.166 2 148.872 1.8 147.619 1.8C145.832 1.8 144.352 2.05333 143.179 2.56C142.006 3.06667 141.139 3.74667 140.579 4.6C140.019 5.42667 139.739 6.36 139.739 7.4C139.739 8.6 140.046 9.56 140.659 10.28C141.299 11 142.139 11.5733 143.179 12C144.219 12.4267 145.366 12.7867 146.619 13.08C147.872 13.3733 149.112 13.6933 150.339 14.04C151.566 14.36 152.699 14.7867 153.739 15.32C154.779 15.8533 155.619 16.5733 156.259 17.48C156.899 18.3867 157.219 19.56 157.219 21C157.219 22.3067 156.859 23.5333 156.139 24.68C155.419 25.8 154.312 26.7067 152.819 27.4C151.352 28.0667 149.459 28.4 147.139 28.4Z" fill="url(#paint4_linear_2467_286)"/>
<path d="M163.074 28.2L175.954 0.2H177.994L190.874 28.2H188.674L176.514 1.48H177.394L165.274 28.2H163.074Z" fill="url(#paint5_linear_2467_286)"/>
<defs>
<linearGradient id="paint0_linear_2467_286" x1="0" y1="14.2" x2="190.874" y2="14.2" gradientUnits="userSpaceOnUse">
<stop stop-color="#969595"/>
<stop offset="1" stop-color="#6E402D"/>
</linearGradient>
<linearGradient id="paint1_linear_2467_286" x1="0" y1="14.2" x2="190.874" y2="14.2" gradientUnits="userSpaceOnUse">
<stop stop-color="#969595"/>
<stop offset="1" stop-color="#6E402D"/>
</linearGradient>
<linearGradient id="paint2_linear_2467_286" x1="0" y1="14.2" x2="190.874" y2="14.2" gradientUnits="userSpaceOnUse">
<stop stop-color="#969595"/>
<stop offset="1" stop-color="#6E402D"/>
</linearGradient>
<linearGradient id="paint3_linear_2467_286" x1="0" y1="14.2" x2="190.874" y2="14.2" gradientUnits="userSpaceOnUse">
<stop stop-color="#969595"/>
<stop offset="1" stop-color="#6E402D"/>
</linearGradient>
<linearGradient id="paint4_linear_2467_286" x1="0" y1="14.2" x2="190.874" y2="14.2" gradientUnits="userSpaceOnUse">
<stop stop-color="#969595"/>
<stop offset="1" stop-color="#6E402D"/>
</linearGradient>
<linearGradient id="paint5_linear_2467_286" x1="0" y1="14.2" x2="190.874" y2="14.2" gradientUnits="userSpaceOnUse">
<stop stop-color="#969595"/>
<stop offset="1" stop-color="#6E402D"/>
</linearGradient>
</defs>
</svg>
